<!-- Generated by IcoMoon.io -->
<svg version="1.1" xmlns="http://www.w3.org/2000/svg" width="1024" height="1024" viewBox="0 0 1024 1024">
<title></title>
<g id="icomoon-ignore">
</g>
<path fill="#000" d="M547.272 180.908h-70.543c-183.181 0-331.093 148.481-331.093 331.093s148.48 331.092 331.093 331.092h70.543c183.181 0 331.092-148.48 331.092-331.092s-148.48-331.093-331.092-331.093zM751.503 512.002c0 65.423-23.895 124.588-62.011 171.804l-384-384c47.219-38.115 106.383-62.008 171.804-62.008 151.327 0 274.207 122.88 274.207 274.204zM202.524 512.002c0-65.421 23.893-124.588 62.008-171.804l384 384c-47.217 38.116-106.381 62.008-171.804 62.008-151.324 0-274.204-122.88-274.204-274.204z"></path>
</svg>
