<!-- Generated by IcoMoon.io -->
<svg version="1.1" xmlns="http://www.w3.org/2000/svg" width="1024" height="1024" viewBox="0 0 1024 1024">
<title></title>
<g id="icomoon-ignore">
</g>
<path fill="#000" d="M389.181 859.744h269.294c0 27.948-11.103 54.751-30.863 74.514-19.763 19.761-46.566 30.863-74.514 30.863h-58.54c-27.948 0-54.751-11.103-74.514-30.863-19.761-19.763-30.863-46.566-30.863-74.514z"></path>
<path fill="#000" d="M546.143 58.879c200.292 0 362.657 162.367 362.657 362.657v393.219h-793.6v-393.219c0-200.291 162.365-362.657 362.657-362.657h68.285zM768.855 743.098v-321.562c0-160.716-130.284-291.001-290.998-291.001-160.717 0-291.001 130.285-291.001 291.001v321.562h581.999z"></path>
</svg>
